<?xml version="1.0" encoding="UTF-8"?>
<svg version="1.1" xmlns="http://www.w3.org/2000/svg" width="256" height="256">
<path d="M0 0 C2.45767104 -0.00434431 4.91349783 -0.04069043 7.37084961 -0.07861328 C40.56071724 -0.31447108 71.00108417 14.30586541 94.68920898 37.08154297 C115.4428313 57.74775532 130.86765076 88.01262303 131.16186523 117.63623047 C131.16993698 118.42850037 131.17800873 119.22077026 131.18632507 120.03704834 C131.20011188 121.71461847 131.21085803 123.392216 131.21875 125.06982422 C131.23016058 126.74894714 131.25043445 128.42803704 131.28027344 130.10693359 C131.8108921 160.05872698 121.42245869 188.55867346 101.92358398 211.37060547 C101.48788086 211.88461914 101.05217773 212.39863281 100.60327148 212.92822266 C82.96215492 233.52242086 59.29036617 247.93115209 32.92358398 254.37060547 C32.17439697 254.55606934 31.42520996 254.7415332 30.65332031 254.93261719 C22.42720342 256.70104696 14.22320715 256.7428596 5.84716797 256.74121094 C3.38949693 256.74555524 0.93367014 256.78190136 -1.52368164 256.81982422 C-34.71354927 257.05568202 -65.1539162 242.43534553 -88.84204102 219.65966797 C-109.59566333 198.99345562 -125.02048279 168.7285879 -125.31469727 139.10498047 C-125.32276901 138.31271057 -125.33084076 137.52044067 -125.3391571 136.7041626 C-125.35294392 135.02659247 -125.36369006 133.34899493 -125.37158203 131.67138672 C-125.38299261 129.99226379 -125.40326648 128.3131739 -125.43310547 126.63427734 C-125.96372414 96.68248396 -115.57529072 68.18253747 -96.07641602 45.37060547 C-95.42286133 44.59958496 -95.42286133 44.59958496 -94.75610352 43.81298828 C-77.11498695 23.21879007 -53.4431982 8.81005885 -27.07641602 2.37060547 C-26.327229 2.1851416 -25.57804199 1.99967773 -24.80615234 1.80859375 C-16.58003545 0.04016398 -8.37603918 -0.00164866 0 0 Z " fill="#F16B51" transform="translate(125.076416015625,-0.37060546875)"/>
<path d="M0 0 C2.45767104 -0.00434431 4.91349783 -0.04069043 7.37084961 -0.07861328 C40.56071724 -0.31447108 71.00108417 14.30586541 94.68920898 37.08154297 C115.4428313 57.74775532 130.86765076 88.01262303 131.16186523 117.63623047 C131.16993698 118.42850037 131.17800873 119.22077026 131.18632507 120.03704834 C131.20011188 121.71461847 131.21085803 123.392216 131.21875 125.06982422 C131.23016058 126.74894714 131.25043445 128.42803704 131.28027344 130.10693359 C131.8108921 160.05872698 121.42245869 188.55867346 101.92358398 211.37060547 C101.48788086 211.88461914 101.05217773 212.39863281 100.60327148 212.92822266 C82.96215492 233.52242086 59.29036617 247.93115209 32.92358398 254.37060547 C32.17439697 254.55606934 31.42520996 254.7415332 30.65332031 254.93261719 C22.42720342 256.70104696 14.22320715 256.7428596 5.84716797 256.74121094 C3.38949693 256.74555524 0.93367014 256.78190136 -1.52368164 256.81982422 C-34.71354927 257.05568202 -65.1539162 242.43534553 -88.84204102 219.65966797 C-109.59566333 198.99345562 -125.02048279 168.7285879 -125.31469727 139.10498047 C-125.32276901 138.31271057 -125.33084076 137.52044067 -125.3391571 136.7041626 C-125.35294392 135.02659247 -125.36369006 133.34899493 -125.37158203 131.67138672 C-125.38299261 129.99226379 -125.40326648 128.3131739 -125.43310547 126.63427734 C-125.96372414 96.68248396 -115.57529072 68.18253747 -96.07641602 45.37060547 C-95.42286133 44.59958496 -95.42286133 44.59958496 -94.75610352 43.81298828 C-77.11498695 23.21879007 -53.4431982 8.81005885 -27.07641602 2.37060547 C-26.327229 2.1851416 -25.57804199 1.99967773 -24.80615234 1.80859375 C-16.58003545 0.04016398 -8.37603918 -0.00164866 0 0 Z M-74.07641602 46.37060547 C-75.06382895 47.2856059 -76.05215257 48.19962429 -77.04125977 49.11279297 C-98.11151882 68.92343508 -108.90723477 97.16082791 -110.04125977 125.76904297 C-110.67186594 156.71521114 -98.57466662 185.33199834 -77.65014648 207.74511719 C-57.17885182 228.88968434 -28.79359132 240.39517711 0.46264648 241.37060547 C32.22336368 241.76532366 61.28463268 229.28870101 83.92358398 207.37060547 C102.74580006 188.4153702 115.24108556 161.24180271 115.25257874 134.39353943 C115.2415634 133.02956385 115.22563149 131.6656193 115.20483398 130.30175781 C115.17349706 128.23988582 115.16381858 126.17878698 115.15795898 124.11669922 C115.72606099 109.79000071 115.72606099 109.79000071 111.92358398 96.37060547 C111.29465221 94.87864235 110.67960716 93.38077621 110.07592773 91.87841797 C98.08282953 62.5567848 79.00464618 38.52250714 49.55249023 25.30664062 C7.69411571 7.76106184 -41.05717255 14.22980823 -74.07641602 46.37060547 Z " fill="#F37056" transform="translate(125.076416015625,-0.37060546875)"/>
<path d="M0 0 C1.19618454 0.03954803 2.39236908 0.07909607 3.62480164 0.11984253 C4.90368759 0.11823624 6.18257355 0.11662994 7.50021362 0.11497498 C10.98689442 0.11183412 14.46936419 0.17622252 17.9550705 0.25328851 C21.60501399 0.32232755 25.25506768 0.32853544 28.90556335 0.34156799 C35.80879465 0.37567963 42.71009642 0.46583245 49.61248016 0.57641238 C57.47439485 0.69961441 65.33640459 0.75990581 73.19904518 0.81506217 C89.36422675 0.92986271 105.52747064 1.12318231 121.69120789 1.36862183 C121.27647091 1.98313359 120.86173393 2.59764536 120.43442917 3.23077869 C119.89185596 4.03873229 119.34928276 4.84668589 118.79026794 5.67912292 C118.25178097 6.47925969 117.71329399 7.27939646 117.15848923 8.10377979 C115.58953559 10.44858912 115.58953559 10.44858912 114.10624695 13.40060425 C109.79192556 16.91634876 104.41068727 15.97176374 99.05058289 15.85690308 C97.81326416 15.84982834 96.57594543 15.8427536 95.3011322 15.83546448 C92.01923062 15.81222357 88.73856358 15.76734138 85.45707703 15.71194458 C82.10554888 15.66069952 78.75396766 15.63836608 75.40214539 15.61276245 C68.83135026 15.55761917 62.26138003 15.47393448 55.69120789 15.36862183 C55.38449661 16.15795609 55.07778534 16.94729034 54.76177979 17.76054382 C53.80751309 20.08528443 52.89086659 21.68433857 51.34355164 23.63034058 C50.90333679 24.19172729 50.46312195 24.75311401 50.00956726 25.33151245 C49.55388367 25.90063354 49.09820007 26.46975464 48.62870789 27.05612183 C45.36562484 31.01791814 45.36562484 31.01791814 42.69120789 35.36862183 C58.86120789 35.36862183 75.03120789 35.36862183 91.69120789 35.36862183 C89.71120789 38.33862183 87.73120789 41.30862183 85.69120789 44.36862183 C85.13691101 45.37626587 84.58261414 46.38390991 84.01152039 47.42208862 C80.05235889 50.74346853 75.52741126 49.76713452 70.56620789 49.51315308 C68.30976353 49.46624041 66.05324633 49.42273104 63.79667664 49.3822937 C60.24999538 49.29393263 56.70992162 49.18203561 53.16630554 49.00900269 C40.23844547 47.91741353 40.23844547 47.91741353 28.40800476 51.96377563 C24.19608561 56.16337544 21.24648486 61.02888395 18.69120789 66.36862183 C18.36120789 67.02862183 18.03120789 67.68862183 17.69120789 68.36862183 C37.49120789 68.36862183 57.29120789 68.36862183 77.69120789 68.36862183 C75.26339611 74.43815127 72.84267441 79.21438629 67.69120789 83.36862183 C62.69303031 84.77255131 57.79565486 84.66080124 52.64823914 84.52096558 C51.19192528 84.51499422 49.73559189 84.51274338 48.27926636 84.51402283 C45.23963852 84.50623561 42.20298718 84.46509935 39.16410828 84.39767456 C35.2763856 84.31248684 31.39190865 84.29361041 27.5033617 84.29740047 C24.50129426 84.29603885 21.49993104 84.26858955 18.49809837 84.23239326 C17.06487533 84.21653387 15.63157296 84.20664021 14.19826698 84.20292473 C12.19537592 84.19204014 10.19278888 84.14425595 8.19047546 84.09494019 C7.05322525 84.0758812 5.91597504 84.0568222 4.7442627 84.03718567 C-0.9304772 82.79452016 -3.900948 77.78619753 -7.30879211 73.36862183 C-5.86416336 69.13516429 -3.76460608 66.11639332 -0.99629211 62.61862183 C-0.08700334 61.45880618 0.82182827 60.298632 1.73027039 59.13815308 C2.21270203 58.52536499 2.69513367 57.9125769 3.19218445 57.28121948 C5.78175289 53.97720007 8.32987537 50.641607 10.87870789 47.30612183 C11.4118158 46.60898071 11.94492371 45.9118396 12.4941864 45.193573 C17.00095247 39.29114616 21.47785258 33.36642906 25.94120789 27.43112183 C26.5975824 26.56027954 27.25395691 25.68943726 27.93022156 24.79220581 C28.5371283 23.98339966 29.14403503 23.17459351 29.76933289 22.34127808 C30.30977234 21.62206177 30.85021179 20.90284546 31.4070282 20.16183472 C32.74379641 18.3944197 32.74379641 18.3944197 33.69120789 16.36862183 C16.20120789 16.36862183 -1.28879211 16.36862183 -19.30879211 16.36862183 C-11.2005498 0.15213719 -11.2005498 0.15213719 0 0 Z " fill="#FEFCFB" transform="translate(76.30879211425781,85.63137817382813)"/>
<path d="M0 0 C17.16 0 34.32 0 52 0 C50.41255561 3.96861096 49.37911457 6.09236223 46.84765625 9.28515625 C46.23599609 10.06310547 45.62433594 10.84105469 44.99414062 11.64257812 C44.35669922 12.44115234 43.71925781 13.23972656 43.0625 14.0625 C41.80321791 15.65741984 40.54409772 17.25246753 39.28515625 18.84765625 C38.72707275 19.54898682 38.16898926 20.25031738 37.59399414 20.97290039 C36.03154113 22.95988881 34.50860681 24.97192949 33 27 C29.11649732 26.43384016 27.24229686 24.66155353 24.4375 22 C20.83975063 18.66188203 17.18999066 15.4630731 13.375 12.375 C3.4908894 4.36085627 3.4908894 4.36085627 0 1 C0 0.67 0 0.34 0 0 Z " fill="#D05C46" transform="translate(58,102)"/>
<path d="M0 0 C0.66 0.33 1.32 0.66 2 1 C0.90344712 2.31886772 -0.20253423 3.62990057 -1.3125 4.9375 C-1.92738281 5.66839844 -2.54226562 6.39929687 -3.17578125 7.15234375 C-5 9 -5 9 -8 10 C-8 10.66 -8 11.32 -8 12 C-8.66 11.67 -9.32 11.34 -10 11 C-8.89718873 9.72799029 -7.79269231 8.45744147 -6.6875 7.1875 C-6.07261719 6.47980469 -5.45773438 5.77210937 -4.82421875 5.04296875 C-3.26665665 3.29863261 -1.67341125 1.63221959 0 0 Z " fill="#DB8E7E" transform="translate(41,32)"/>
</svg>
