<?xml version="1.0" encoding="UTF-8"?>
<svg version="1.1" xmlns="http://www.w3.org/2000/svg" width="30" height="30">
<path d="M0 0 C5.55198069 0.06657051 5.55198069 0.06657051 8.0546875 1.7734375 C11.07146547 5.43284272 12.33737948 8.36515226 12.375 13 C12.38917969 13.7940625 12.40335938 14.588125 12.41796875 15.40625 C12.1875 17.5 12.1875 17.5 10.1875 19.5 C8.15625 19.75878906 8.15625 19.75878906 5.6875 19.765625 C4.800625 19.76820312 3.91375 19.77078125 3 19.7734375 C2.071875 19.76570313 1.14375 19.75796875 0.1875 19.75 C-1.2046875 19.76160156 -1.2046875 19.76160156 -2.625 19.7734375 C-3.9553125 19.76957031 -3.9553125 19.76957031 -5.3125 19.765625 C-6.1271875 19.76336914 -6.941875 19.76111328 -7.78125 19.75878906 C-9.8125 19.5 -9.8125 19.5 -11.8125 17.5 C-12.62511842 12.77547432 -12.234913 9.27442383 -9.9375 5.0625 C-6.52989753 0.95333231 -5.34647982 0.15821888 0 0 Z M-2.8125 6.5 C-2.8125 7.16 -2.8125 7.82 -2.8125 8.5 C-3.8025 8.995 -3.8025 8.995 -4.8125 9.5 C-4.8125 10.16 -4.8125 10.82 -4.8125 11.5 C-1.92063214 12.83304698 -1.92063214 12.83304698 0.375 11.5625 C0.973125 11.211875 1.57125 10.86125 2.1875 10.5 C2.1875 9.84 2.1875 9.18 2.1875 8.5 C0.8675 8.5 -0.4525 8.5 -1.8125 8.5 C-2.1425 7.84 -2.4725 7.18 -2.8125 6.5 Z " fill="#FAAF04" transform="translate(14.8125,7.5)"/>
<path d="M0 0 C0.80824219 0.10183594 1.61648437 0.20367187 2.44921875 0.30859375 C3.06410156 0.39238281 3.67898437 0.47617187 4.3125 0.5625 C4.3125 1.8825 4.3125 3.2025 4.3125 4.5625 C0.3525 4.5625 -3.6075 4.5625 -7.6875 4.5625 C-7.6875 3.2425 -7.6875 1.9225 -7.6875 0.5625 C-4.59271121 -0.46909626 -3.16118607 -0.41232862 0 0 Z " fill="#FAB004" transform="translate(16.6875,1.4375)"/>
</svg>
